# xmcd
#
# Track frame offsets:
#	150
#	15530
#	32392
#	50534
#	66512
#	81429
#	93001
#	106218
#	116096
#	123644
#	136880
#	149222
#	161527
#	177176
#	189074
#	201233
#	213056
#	230580
#	244351
#	257280
#
# Disc length: 3609 seconds
#
# Revision: 2
# Processed by: cddbd v1.5.2PL0 Copyright (c) Steve Scherf et al.
# Submitted via: audiograbber 1.83.01
#
DISCID=160e1714
DTITLE=100 Oldie Hits - 100 Oldie Hits CD1
DYEAR=2008
DGENRE=Oldies
TTITLE0=Gloria Gaynor - I Am What I Am
TTITLE1=Kim Carnes - Bette Davis Eyes
TTITLE2=Santa Esmeralda - Don´t Let Me Be Misuntersood
TTITLE3=Limahl - Never Ending Story
TTITLE4=Tony Orlando and Dawn - Tie  A Yellow Ribbon Round
TTITLE5=Jeff Christie - Yellow River
TTITLE6=Tommy Roe - Dizzy
TTITLE7=New Vaudeville Band - Wincheter Cathedral
TTITLE8=The Les Humhries Singers - Rock My Soul
TTITLE9=Kenny Rogers - Ruby Don´t Take Your Love To Town
TTITLE10=Duane Eddy - Dance With The Guitar Man
TTITLE11=Joe Dolan - Make Me An Island
TTITLE12=The Fortunes - Storm In A Teacup
TTITLE13=Hermann´s Hermits - I´m Into Something Good
TTITLE14=The Applejacks - Like Dreamers Do
TTITLE15=Lou Christie - I´m Gonna Make Your Mine
TTITLE16=Chi -Lites - Oh Girl
TTITLE17=Edwin Starr - Stop Her On Sight
TTITLE18=Bee Gees - Spicks And Specks
TTITLE19=John Denver - Annie´s Song (Live)
EXTD=
EXTT0=
EXTT1=
EXTT2=
EXTT3=
EXTT4=
EXTT5=
EXTT6=
EXTT7=
EXTT8=
EXTT9=
EXTT10=
EXTT11=
EXTT12=
EXTT13=
EXTT14=
EXTT15=
EXTT16=
EXTT17=
EXTT18=
EXTT19=
PLAYORDER=
